<?xml version="1.0" encoding="UTF-8"?>
<svg xmlns="http://www.w3.org/2000/svg" xmlns:xlink="http://www.w3.org/1999/xlink" width="200px" height="57px" viewBox="0 0 201 57" version="1.1">
<g id="surface1">
<path style=" stroke:none;fill-rule:nonzero;fill:rgb(11.372549%,11.372549%,10.588235%);fill-opacity:1;" d="M 11.511719 0 C 9.671875 0 7.292969 1.953125 5.886719 3.261719 C 2.796875 6.015625 0 11.085938 0 15.144531 C 0 20.925781 4.894531 23.105469 6.132812 23.105469 C 6.542969 23.105469 6.890625 22.898438 6.890625 22.339844 C 6.890625 21.902344 6.617188 21.539062 6.34375 21.167969 C 5.210938 19.433594 4.847656 17.769531 4.847656 15.535156 C 4.847656 10.867188 6.996094 6.589844 8.773438 4.625 C 9.101562 4.269531 9.839844 3.503906 10.066406 3.503906 C 10.28125 3.503906 10.339844 3.679688 10.339844 4.238281 L 10.121094 34.796875 C 10.121094 39.578125 8.746094 41.472656 8.746094 42.597656 C 8.746094 43.089844 8.964844 43.21875 9.367188 43.21875 C 11.296875 43.21875 13.210938 40.859375 13.757812 39.996094 C 15.445312 37.074219 15.855469 34.789062 15.855469 28.203125 L 15.855469 2.527344 C 15.855469 1.832031 15.660156 1.535156 15.003906 1.105469 C 14.046875 0.492188 12.945312 0 11.511719 0 Z M 66.59375 0.0898438 C 65.6875 0.0898438 65.300781 0.566406 65.261719 2.035156 L 65.058594 8.128906 L 59.753906 7.945312 C 59.433594 7.9375 59.285156 8.042969 59.140625 8.324219 C 58.691406 9.171875 58.449219 9.832031 58.449219 10.949219 C 58.449219 11.851562 58.859375 11.949219 59.222656 11.949219 L 64.746094 12.109375 L 64.730469 23.753906 C 64.730469 26.222656 63.179688 29.429688 60.429688 32.09375 C 60.429688 32.09375 60.660156 31.285156 60.652344 30.445312 C 60.652344 28.054688 59.125 25.890625 57.085938 24.359375 L 52.097656 20.597656 C 53.144531 19.386719 54.914062 16.980469 54.914062 14.945312 C 54.914062 13.371094 53.925781 12.707031 52.089844 12.707031 C 49.496094 12.707031 46.488281 15.097656 46.488281 18.632812 C 46.488281 19.925781 47.058594 21.089844 47.925781 21.976562 C 46.726562 24.261719 45.03125 27.273438 43.769531 29.414062 C 42.820312 31.050781 41.203125 33.5625 40.257812 33.5625 C 39.558594 33.5625 39.226562 32.457031 39.226562 28.183594 C 39.226562 24.640625 39.476562 20.789062 39.605469 17.09375 C 39.605469 16.246094 39.46875 15.460938 38.367188 14.695312 C 37.363281 14.046875 36.117188 13.136719 34.828125 13.136719 C 31.976562 13.136719 30.039062 15.769531 28.703125 18.34375 C 27.328125 21.015625 26.582031 23.261719 25.527344 26.53125 L 25.640625 15.300781 C 25.671875 14.5 25.472656 14.183594 24.835938 13.917969 C 24.007812 13.5625 22.785156 13.160156 21.707031 13.160156 C 20.808594 13.160156 20.695312 13.546875 20.695312 14.507812 L 20.574219 27.984375 L 20.558594 33.183594 C 20.558594 37.875 21.144531 38.648438 23.910156 38.648438 C 25.445312 38.648438 25.9375 38.472656 25.96875 37.1875 C 26.007812 36.339844 26.410156 34.289062 26.957031 32.230469 C 28.550781 26.160156 30.449219 21.355469 33.703125 17.699219 C 34.042969 17.34375 34.308594 17.472656 34.25 17.972656 C 34.25 17.972656 33.734375 26.191406 33.734375 29.550781 C 33.734375 35.523438 34.652344 38.648438 37.609375 38.648438 C 40.523438 38.648438 43.375 34.902344 44.925781 32.367188 L 49.929688 23.96875 C 53.167969 26.738281 55.429688 28.886719 55.429688 31.503906 C 55.429688 33.125 54.40625 34.714844 52.855469 34.714844 C 50.910156 34.714844 49.671875 32.65625 48.359375 32.65625 C 47.265625 32.65625 45.875 34.773438 45.875 35.96875 C 45.875 37.097656 48.335938 38.707031 52.75 38.707031 C 59.269531 38.707031 62.761719 34.214844 64.859375 29.242188 C 65.261719 35.144531 67.601562 38.59375 71.257812 38.59375 C 73.65625 38.59375 76.421875 35.546875 77.683594 31.84375 C 77.683594 31.84375 77.804688 32.804688 78.761719 34.78125 C 80.078125 37.355469 82.082031 38.542969 84.566406 38.542969 C 87.660156 38.542969 90.304688 36.664062 91.921875 33.496094 C 92.164062 35.894531 94.164062 38.527344 97.386719 38.527344 C 99.40625 38.527344 101.246094 36.96875 102.460938 34.410156 C 102.460938 34.410156 104.03125 38.640625 108.554688 38.640625 C 111.097656 38.640625 114.113281 36.273438 114.835938 34.554688 L 114.914062 37.058594 L 108.195312 43.28125 C 106.242188 45.1875 104.167969 47.917969 104.167969 50.945312 C 104.167969 54.796875 107.785156 57.007812 110.96875 57.007812 C 114.28125 57.007812 116.476562 54.902344 117.679688 53.140625 C 119.191406 50.855469 119.835938 46.550781 119.835938 42.347656 L 119.683594 36.015625 C 124.210938 31.019531 127.761719 24.101562 129.339844 19.214844 L 132.78125 19.125 C 133.449219 19.078125 133.414062 19.34375 133.320312 19.730469 C 132.714844 22.300781 132.1875 25.199219 132.1875 28.097656 C 132.1875 32.875 133.277344 34.957031 134.855469 36.65625 C 136.222656 38.074219 137.589844 38.558594 139.019531 38.558594 C 141.824219 38.558594 143.585938 36.234375 144.140625 34.765625 C 145.460938 37.339844 147.398438 38.542969 149.882812 38.542969 C 152.976562 38.542969 155.621094 36.664062 157.238281 33.496094 C 157.480469 35.894531 159.480469 38.527344 162.707031 38.527344 C 165.109375 38.527344 166.507812 37.128906 167.601562 34.507812 C 167.625 35.355469 167.65625 36.25 167.683594 37.097656 C 167.714844 37.535156 168.058594 37.808594 168.375 37.921875 C 169.394531 38.308594 170.296875 38.503906 171.097656 38.503906 C 173.199219 38.503906 173.65625 38.066406 173.65625 36.6875 C 173.65625 34.410156 173.71875 30.816406 174.363281 27.925781 C 175.046875 25.050781 176.074219 21.800781 177.5 19.53125 C 177.628906 19.296875 177.941406 19.359375 177.957031 19.644531 C 178.160156 24.488281 178.488281 32.691406 179.75 34.8125 C 180.378906 35.824219 181.34375 36.566406 182.789062 36.566406 C 183.464844 36.566406 184.300781 36.273438 184.511719 36.097656 C 184.726562 35.929688 184.832031 35.742188 184.824219 35.394531 C 184.824219 29.203125 186.746094 23.203125 188.675781 19.175781 C 188.730469 19.054688 188.875 19.046875 188.875 19.207031 L 188.769531 23.671875 C 188.769531 31.003906 189.292969 35.628906 192.945312 37.855469 C 193.660156 38.261719 194.472656 38.472656 195.292969 38.472656 C 197.15625 38.472656 198.84375 37.421875 199.679688 35.742188 C 200.363281 34.433594 201 31.914062 201 30.496094 C 201 29.945312 201.007812 29.039062 200.109375 29.039062 C 199.617188 29.039062 199.320312 29.402344 199.199219 29.960938 C 198.910156 31.15625 198.675781 32.179688 198.234375 33.367188 C 197.808594 34.5 197.171875 35.152344 196.417969 35.152344 C 195.53125 35.152344 195.082031 34.449219 194.824219 34.023438 C 193.699219 32.292969 193.601562 28.324219 193.601562 25.003906 L 193.875 16.46875 C 193.875 15.769531 193.578125 14.921875 192.5 14.296875 C 191.769531 13.878906 189.929688 13.085938 188.804688 13.085938 C 187.757812 13.085938 187.25 13.683594 186.875 14.558594 C 186.167969 16.125 183.792969 22.285156 183.160156 27.289062 C 183.136719 27.417969 182.972656 27.449219 182.957031 27.28125 C 182.628906 23.746094 182.460938 19.472656 182.460938 16.597656 C 182.460938 15.726562 182.25 14.484375 180.410156 13.675781 C 179.515625 13.304688 178.777344 13.078125 177.878906 13.078125 C 176.757812 13.078125 176.519531 13.628906 176.117188 14.355469 C 174.847656 16.703125 173.96875 19.773438 172.660156 23.648438 L 172.675781 14.789062 C 172.675781 14.378906 172.425781 13.839844 171.703125 13.683594 C 169.910156 13.273438 169.074219 13.078125 168.367188 13.078125 C 167.851562 13.078125 167.570312 13.492188 167.570312 13.933594 L 167.472656 29.03125 C 167.128906 30.882812 165.71875 35.289062 163.726562 35.289062 C 162.085938 35.289062 161.324219 33.625 161.324219 26.660156 L 161.621094 15.332031 C 161.621094 14.613281 161.152344 14.316406 160.46875 14.015625 C 159.496094 13.628906 158.71875 13.476562 157.730469 13.476562 C 156.484375 13.476562 156.054688 14.074219 156.3125 15.507812 C 154.945312 13.652344 153.582031 12.628906 151.167969 12.628906 C 146.320312 12.628906 142.667969 18.480469 142.667969 26.980469 C 142.621094 29.363281 143.191406 31.738281 143.191406 31.738281 C 142.75 33.714844 141.722656 35.332031 140.296875 35.332031 C 138.503906 35.332031 137.355469 32.777344 137.355469 28.363281 C 137.355469 23.929688 139.035156 18.933594 139.035156 17.578125 C 139.035156 16.003906 138.007812 15 136.191406 15 C 135.28125 15 131.894531 15.769531 130.160156 16.027344 C 130.160156 16.027344 130.351562 15.195312 130.34375 14.546875 C 130.34375 13 129.621094 12.023438 127.820312 12.023438 C 125.617188 12.023438 124 13.605469 124 16.292969 C 124 17.503906 124.691406 18.617188 125.609375 19.222656 C 124.417969 24.210938 122.480469 27.917969 119.628906 32.070312 L 119.867188 15.292969 C 119.867188 14.742188 119.722656 14.402344 118.664062 13.992188 C 118.097656 13.75 117.183594 13.46875 116.023438 13.46875 C 114.351562 13.46875 114.457031 14.667969 114.554688 15.566406 C 113.789062 14.203125 112.109375 12.578125 109.519531 12.578125 C 102.46875 12.578125 100.300781 23.382812 101.359375 31.050781 C 101.359375 31.988281 100.453125 35.304688 98.394531 35.304688 C 96.753906 35.304688 95.988281 33.644531 95.988281 26.675781 L 96.285156 15.347656 C 96.285156 14.628906 95.8125 14.332031 95.136719 14.03125 C 94.164062 13.644531 93.394531 13.492188 92.402344 13.492188 C 91.15625 13.492188 90.730469 14.089844 90.988281 15.527344 C 89.621094 13.667969 88.253906 12.644531 85.84375 12.644531 C 80.996094 12.644531 77.296875 17.996094 77.296875 26.496094 C 77.296875 29.742188 74.515625 34.699219 72.5625 34.699219 C 71.476562 34.699219 70.324219 32.699219 70.324219 27.597656 C 70.332031 24.117188 70.800781 12.265625 70.800781 12.265625 L 77.609375 12.152344 C 77.933594 12.152344 78.125 11.789062 78.246094 11.570312 C 78.558594 10.933594 78.710938 10.503906 78.710938 9.746094 C 78.710938 9.058594 78.574219 8.808594 77.699219 8.75 L 70.914062 8.316406 L 71.203125 1.960938 C 71.226562 1.558594 70.984375 1.300781 70.542969 1.105469 C 69.222656 0.589844 67.617188 0.0898438 66.59375 0.0898438 Z M 87.21875 16.738281 C 89.035156 16.738281 90.875 18.398438 90.875 24.300781 C 90.875 31.730469 88.183594 35.191406 86.109375 35.191406 C 84.164062 35.191406 82.691406 32.441406 82.691406 27.03125 C 82.683594 21.546875 84.121094 16.738281 87.21875 16.738281 Z M 152.632812 16.738281 C 154.449219 16.738281 156.289062 18.398438 156.289062 24.300781 C 156.289062 31.730469 153.597656 35.191406 151.523438 35.191406 C 149.574219 35.191406 148.105469 32.441406 148.105469 27.03125 C 148.105469 21.546875 149.542969 16.738281 152.632812 16.738281 Z M 111.136719 16.769531 C 113.507812 16.769531 114.554688 19.222656 114.554688 23.980469 C 114.554688 31.148438 112.429688 35.234375 109.851562 35.234375 C 108.203125 35.234375 106.3125 32.519531 106.410156 27.183594 C 106.417969 23.769531 107.527344 16.769531 111.136719 16.769531 Z M 115.15625 40.753906 L 115.15625 43.582031 C 115.15625 52.957031 112.671875 54.554688 110.671875 54.554688 C 109.914062 54.554688 108.058594 53.980469 108.058594 51.664062 C 108.058594 48.417969 111.433594 44.734375 112.480469 43.597656 Z M 115.15625 40.753906 "/>
</g>
</svg>
